<?xml version="1.0" standalone="no"?>
<!DOCTYPE svg PUBLIC "-//W3C//DTD SVG 20010904//EN"
 "http://www.w3.org/TR/2001/REC-SVG-20010904/DTD/svg10.dtd">
<svg version="1.0" xmlns="http://www.w3.org/2000/svg"
 width="260.000000pt" height="260.000000pt" viewBox="0 0 260.000000 260.000000"
 preserveAspectRatio="xMidYMid meet">
<metadata>
Created by potrace 1.14, written by Peter Selinger 2001-2017
</metadata>
<g transform="translate(0.000000,260.000000) scale(0.100000,-0.100000)"
fill="#000000" stroke="none">
<path d="M855 2339 c-363 -66 -666 -121 -672 -124 -10 -3 -13 -162 -13 -748
l0 -744 407 -294 c224 -161 414 -292 422 -292 13 1 1351 308 1435 329 l26 6 0
758 c0 594 -3 760 -12 767 -40 32 -888 463 -909 462 -13 0 -321 -55 -684 -120z
m983 -155 c169 -86 310 -159 314 -163 4 -3 -244 -57 -552 -120 l-558 -113 -68
40 c-38 21 -89 51 -114 64 -397 222 -445 251 -424 259 11 5 154 31 319 59 165
28 397 68 515 89 118 22 226 39 238 40 13 1 162 -69 330 -155z m-1295 -272
c133 -76 272 -153 308 -171 36 -18 75 -41 87 -50 l22 -16 -2 -688 -3 -688 -21
19 c-11 11 -39 31 -62 46 -23 15 -50 33 -60 41 -9 8 -55 41 -102 74 -47 33
-90 64 -96 69 -6 5 -28 21 -50 36 -21 14 -64 44 -94 66 -30 22 -80 57 -110 77
-30 21 -58 42 -62 48 -8 11 -11 1275 -3 1275 3 0 114 -62 248 -138z m1797
-665 l0 -682 -142 -33 c-79 -18 -249 -58 -378 -88 -129 -30 -347 -80 -485
-112 l-250 -58 -3 695 c-1 382 -1 696 1 698 4 3 146 33 892 185 232 47 356 74
363 77 1 0 2 -306 2 -682z"/>
</g>
</svg>
